<svg xmlns="http://www.w3.org/2000/svg" xmlns:xlink="http://www.w3.org/1999/xlink" width="1080" zoomAndPan="magnify" viewBox="0 0 810 809.999993" height="1080" preserveAspectRatio="xMidYMid meet" version="1.0"><defs><g/><clipPath id="id1"><path d="M 17.671875 1 L 792.421875 1 L 792.421875 810 L 17.671875 810 Z M 17.671875 1 " clip-rule="nonzero"/></clipPath></defs><g clip-path="url(#id1)"><path fill="#000000" d="M 694.941406 1.882812 L 115.15625 1.882812 C 113.5625 1.882812 111.96875 1.925781 110.378906 2.003906 C 108.789062 2.085938 107.199219 2.203125 105.617188 2.359375 C 104.03125 2.519531 102.449219 2.714844 100.875 2.949219 C 99.300781 3.1875 97.730469 3.460938 96.167969 3.773438 C 94.605469 4.082031 93.054688 4.433594 91.507812 4.820312 C 89.964844 5.210938 88.429688 5.636719 86.90625 6.101562 C 85.378906 6.5625 83.867188 7.0625 82.371094 7.601562 C 80.871094 8.140625 79.382812 8.710938 77.914062 9.324219 C 76.441406 9.933594 74.984375 10.578125 73.546875 11.261719 C 72.105469 11.941406 70.683594 12.660156 69.28125 13.410156 C 67.875 14.164062 66.492188 14.949219 65.125 15.765625 C 63.757812 16.585938 62.414062 17.4375 61.089844 18.324219 C 59.765625 19.210938 58.464844 20.125 57.183594 21.074219 C 55.90625 22.023438 54.648438 23.003906 53.417969 24.015625 C 52.1875 25.027344 50.980469 26.066406 49.800781 27.136719 C 48.621094 28.203125 47.46875 29.304688 46.339844 30.429688 C 45.214844 31.554688 44.117188 32.707031 43.046875 33.886719 C 41.976562 35.070312 40.9375 36.273438 39.925781 37.503906 C 38.914062 38.738281 37.933594 39.992188 36.984375 41.269531 C 36.035156 42.550781 35.121094 43.851562 34.234375 45.175781 C 33.347656 46.5 32.496094 47.84375 31.675781 49.210938 C 30.859375 50.574219 30.070312 51.960938 29.320312 53.363281 C 28.570312 54.769531 27.851562 56.191406 27.171875 57.632812 C 26.488281 59.070312 25.84375 60.527344 25.230469 61.996094 C 24.621094 63.46875 24.046875 64.953125 23.511719 66.453125 C 22.972656 67.953125 22.472656 69.464844 22.007812 70.988281 C 21.546875 72.511719 21.117188 74.046875 20.730469 75.589844 C 20.34375 77.132812 19.992188 78.6875 19.679688 80.25 C 19.367188 81.8125 19.09375 83.378906 18.859375 84.957031 C 18.625 86.53125 18.425781 88.109375 18.269531 89.695312 C 18.113281 91.28125 17.992188 92.867188 17.914062 94.457031 C 17.832031 96.050781 17.792969 97.640625 17.789062 99.234375 L 17.789062 712.15625 C 17.792969 713.75 17.832031 715.34375 17.914062 716.933594 C 17.992188 718.523438 18.113281 720.109375 18.269531 721.695312 C 18.425781 723.28125 18.625 724.859375 18.859375 726.4375 C 19.09375 728.011719 19.367188 729.578125 19.679688 731.140625 C 19.992188 732.703125 20.34375 734.253906 20.730469 735.800781 C 21.121094 737.34375 21.546875 738.878906 22.007812 740.402344 C 22.472656 741.925781 22.972656 743.4375 23.511719 744.9375 C 24.046875 746.4375 24.621094 747.921875 25.234375 749.390625 C 25.84375 750.863281 26.488281 752.316406 27.171875 753.757812 C 27.855469 755.195312 28.570312 756.617188 29.320312 758.023438 C 30.074219 759.425781 30.859375 760.8125 31.679688 762.175781 C 32.496094 763.542969 33.351562 764.886719 34.234375 766.210938 C 35.121094 767.535156 36.039062 768.835938 36.988281 770.117188 C 37.9375 771.394531 38.917969 772.648438 39.925781 773.878906 C 40.9375 775.113281 41.980469 776.316406 43.046875 777.496094 C 44.117188 778.675781 45.214844 779.828125 46.34375 780.957031 C 47.46875 782.082031 48.621094 783.179688 49.804688 784.25 C 50.984375 785.320312 52.1875 786.359375 53.421875 787.371094 C 54.652344 788.378906 55.90625 789.359375 57.1875 790.308594 C 58.464844 791.257812 59.765625 792.175781 61.089844 793.058594 C 62.414062 793.945312 63.761719 794.796875 65.125 795.617188 C 66.492188 796.433594 67.878906 797.21875 69.28125 797.972656 C 70.6875 798.722656 72.109375 799.4375 73.546875 800.121094 C 74.988281 800.800781 76.445312 801.445312 77.914062 802.058594 C 79.386719 802.667969 80.871094 803.242188 82.371094 803.777344 C 83.871094 804.316406 85.382812 804.816406 86.90625 805.28125 C 88.429688 805.742188 89.964844 806.167969 91.507812 806.554688 C 93.054688 806.945312 94.605469 807.292969 96.167969 807.605469 C 97.730469 807.917969 99.300781 808.191406 100.875 808.425781 C 102.449219 808.660156 104.03125 808.859375 105.617188 809.015625 C 107.199219 809.171875 108.789062 809.292969 110.378906 809.371094 C 111.972656 809.449219 113.5625 809.492188 115.15625 809.492188 L 694.941406 809.492188 C 696.53125 809.492188 698.125 809.449219 699.714844 809.371094 C 701.304688 809.292969 702.894531 809.171875 704.480469 809.015625 C 706.0625 808.859375 707.644531 808.660156 709.21875 808.425781 C 710.796875 808.191406 712.363281 807.917969 713.925781 807.605469 C 715.488281 807.292969 717.042969 806.945312 718.585938 806.554688 C 720.132812 806.167969 721.664062 805.742188 723.1875 805.28125 C 724.714844 804.816406 726.226562 804.316406 727.722656 803.777344 C 729.222656 803.242188 730.710938 802.667969 732.179688 802.058594 C 733.652344 801.449219 735.105469 800.800781 736.546875 800.121094 C 737.988281 799.4375 739.410156 798.722656 740.8125 797.972656 C 742.21875 797.21875 743.601562 796.433594 744.96875 795.617188 C 746.335938 794.796875 747.679688 793.945312 749.003906 793.058594 C 750.328125 792.175781 751.628906 791.257812 752.910156 790.308594 C 754.1875 789.359375 755.445312 788.378906 756.675781 787.371094 C 757.90625 786.359375 759.113281 785.320312 760.292969 784.25 C 761.472656 783.179688 762.625 782.082031 763.753906 780.957031 C 764.878906 779.828125 765.976562 778.675781 767.046875 777.496094 C 768.117188 776.316406 769.15625 775.113281 770.167969 773.882812 C 771.179688 772.648438 772.160156 771.394531 773.109375 770.117188 C 774.058594 768.835938 774.972656 767.535156 775.859375 766.210938 C 776.746094 764.886719 777.597656 763.542969 778.417969 762.179688 C 779.238281 760.8125 780.023438 759.425781 780.773438 758.023438 C 781.523438 756.617188 782.242188 755.195312 782.921875 753.757812 C 783.605469 752.316406 784.25 750.863281 784.863281 749.390625 C 785.472656 747.921875 786.046875 746.4375 786.585938 744.9375 C 787.121094 743.4375 787.621094 741.925781 788.085938 740.402344 C 788.550781 738.878906 788.976562 737.34375 789.363281 735.800781 C 789.753906 734.253906 790.101562 732.703125 790.414062 731.140625 C 790.726562 729.578125 791 728.011719 791.234375 726.4375 C 791.472656 724.859375 791.667969 723.28125 791.824219 721.695312 C 791.984375 720.109375 792.101562 718.523438 792.183594 716.933594 C 792.261719 715.34375 792.304688 713.75 792.304688 712.15625 L 792.304688 99.234375 C 792.304688 97.640625 792.261719 96.050781 792.183594 94.457031 C 792.101562 92.867188 791.984375 91.28125 791.824219 89.695312 C 791.667969 88.109375 791.472656 86.53125 791.238281 84.957031 C 791 83.378906 790.726562 81.8125 790.414062 80.25 C 790.101562 78.6875 789.753906 77.132812 789.363281 75.589844 C 788.976562 74.046875 788.550781 72.511719 788.085938 70.988281 C 787.625 69.464844 787.121094 67.953125 786.585938 66.453125 C 786.046875 64.953125 785.472656 63.46875 784.863281 61.996094 C 784.253906 60.527344 783.605469 59.070312 782.925781 57.632812 C 782.242188 56.191406 781.527344 54.769531 780.773438 53.363281 C 780.023438 51.960938 779.238281 50.574219 778.417969 49.210938 C 777.597656 47.84375 776.746094 46.5 775.859375 45.175781 C 774.976562 43.851562 774.058594 42.550781 773.109375 41.269531 C 772.160156 39.992188 771.179688 38.738281 770.167969 37.503906 C 769.160156 36.273438 768.117188 35.070312 767.046875 33.886719 C 765.980469 32.707031 764.878906 31.554688 763.753906 30.429688 C 762.628906 29.304688 761.472656 28.203125 760.292969 27.136719 C 759.113281 26.066406 757.910156 25.027344 756.675781 24.015625 C 755.445312 23.003906 754.191406 22.023438 752.910156 21.074219 C 751.632812 20.125 750.332031 19.210938 749.007812 18.324219 C 747.683594 17.4375 746.335938 16.585938 744.972656 15.765625 C 743.605469 14.949219 742.21875 14.164062 740.816406 13.410156 C 739.410156 12.660156 737.988281 11.941406 736.546875 11.261719 C 735.109375 10.578125 733.652344 9.933594 732.183594 9.324219 C 730.710938 8.710938 729.226562 8.140625 727.726562 7.601562 C 726.226562 7.0625 724.714844 6.5625 723.191406 6.101562 C 721.667969 5.636719 720.132812 5.210938 718.585938 4.820312 C 717.042969 4.433594 715.488281 4.082031 713.925781 3.773438 C 712.363281 3.460938 710.796875 3.1875 709.222656 2.949219 C 707.644531 2.714844 706.066406 2.519531 704.480469 2.359375 C 702.894531 2.203125 701.308594 2.085938 699.714844 2.003906 C 698.125 1.925781 696.53125 1.882812 694.941406 1.882812 Z M 757.871094 712.15625 C 757.867188 714.21875 757.765625 716.273438 757.5625 718.324219 C 757.355469 720.371094 757.050781 722.40625 756.648438 724.425781 C 756.246094 726.445312 755.742188 728.441406 755.144531 730.414062 C 754.542969 732.382812 753.847656 734.320312 753.058594 736.222656 C 752.269531 738.125 751.386719 739.984375 750.414062 741.800781 C 749.445312 743.617188 748.386719 745.378906 747.238281 747.09375 C 746.09375 748.804688 744.867188 750.457031 743.5625 752.046875 C 742.253906 753.640625 740.871094 755.164062 739.414062 756.621094 C 737.957031 758.078125 736.433594 759.460938 734.839844 760.765625 C 733.246094 762.074219 731.59375 763.296875 729.882812 764.441406 C 728.167969 765.585938 726.40625 766.644531 724.589844 767.617188 C 722.773438 768.589844 720.910156 769.46875 719.007812 770.257812 C 717.105469 771.046875 715.167969 771.742188 713.199219 772.339844 C 711.226562 772.941406 709.230469 773.441406 707.210938 773.84375 C 705.191406 774.25 703.15625 774.550781 701.105469 774.753906 C 699.054688 774.960938 697 775.0625 694.941406 775.0625 L 115.15625 775.0625 C 113.09375 775.0625 111.039062 774.960938 108.988281 774.753906 C 106.941406 774.550781 104.90625 774.25 102.882812 773.84375 C 100.863281 773.441406 98.867188 772.941406 96.898438 772.339844 C 94.925781 771.742188 92.988281 771.046875 91.085938 770.257812 C 89.183594 769.46875 87.324219 768.589844 85.507812 767.617188 C 83.691406 766.644531 81.925781 765.585938 80.214844 764.441406 C 78.5 763.296875 76.847656 762.074219 75.253906 760.765625 C 73.664062 759.460938 72.136719 758.078125 70.679688 756.621094 C 69.222656 755.164062 67.84375 753.640625 66.535156 752.046875 C 65.226562 750.457031 64 748.804688 62.855469 747.09375 C 61.710938 745.378906 60.652344 743.617188 59.679688 741.800781 C 58.707031 739.984375 57.828125 738.125 57.035156 736.222656 C 56.246094 734.320312 55.550781 732.382812 54.953125 730.414062 C 54.351562 728.441406 53.851562 726.445312 53.445312 724.425781 C 53.042969 722.40625 52.738281 720.371094 52.535156 718.324219 C 52.328125 716.273438 52.226562 714.21875 52.222656 712.15625 L 52.222656 99.234375 C 52.226562 97.175781 52.328125 95.117188 52.53125 93.070312 C 52.738281 91.019531 53.039062 88.984375 53.445312 86.964844 C 53.847656 84.941406 54.347656 82.945312 54.949219 80.976562 C 55.546875 79.003906 56.242188 77.066406 57.03125 75.164062 C 57.820312 73.261719 58.703125 71.402344 59.675781 69.585938 C 60.648438 67.769531 61.707031 66.003906 62.851562 64.292969 C 63.996094 62.578125 65.222656 60.925781 66.53125 59.335938 C 67.835938 57.742188 69.21875 56.21875 70.675781 54.761719 C 72.132812 53.304688 73.65625 51.921875 75.25 50.613281 C 76.84375 49.308594 78.496094 48.082031 80.207031 46.9375 C 81.921875 45.792969 83.6875 44.734375 85.503906 43.761719 C 87.320312 42.789062 89.179688 41.910156 91.082031 41.117188 C 92.988281 40.328125 94.921875 39.636719 96.894531 39.035156 C 98.867188 38.4375 100.863281 37.933594 102.882812 37.53125 C 104.902344 37.128906 106.9375 36.824219 108.988281 36.621094 C 111.039062 36.417969 113.09375 36.3125 115.15625 36.3125 L 694.941406 36.3125 C 697 36.3125 699.054688 36.417969 701.105469 36.621094 C 703.15625 36.824219 705.191406 37.128906 707.210938 37.53125 C 709.234375 37.933594 711.230469 38.4375 713.199219 39.035156 C 715.171875 39.636719 717.109375 40.328125 719.011719 41.117188 C 720.914062 41.910156 722.773438 42.789062 724.59375 43.761719 C 726.410156 44.734375 728.171875 45.792969 729.886719 46.9375 C 731.597656 48.082031 733.253906 49.308594 734.84375 50.613281 C 736.4375 51.921875 737.960938 53.304688 739.417969 54.761719 C 740.875 56.21875 742.257812 57.742188 743.566406 59.335938 C 744.871094 60.925781 746.097656 62.578125 747.246094 64.292969 C 748.390625 66.003906 749.449219 67.769531 750.421875 69.585938 C 751.390625 71.402344 752.273438 73.261719 753.0625 75.164062 C 753.851562 77.066406 754.546875 79.003906 755.144531 80.976562 C 755.746094 82.945312 756.246094 84.941406 756.652344 86.964844 C 757.054688 88.984375 757.359375 91.019531 757.5625 93.070312 C 757.765625 95.117188 757.871094 97.175781 757.871094 99.234375 Z M 757.871094 712.15625 " fill-opacity="1" fill-rule="nonzero"/></g><g fill="#000000" fill-opacity="1"><g transform="translate(91.751951, 348.750002)"><g><path d="M 9.46875 -8.296875 L 9.46875 -157.515625 C 9.46875 -160.359375 9.785156 -162.253906 10.421875 -163.203125 C 11.679688 -164.929688 14.128906 -165.796875 17.765625 -165.796875 L 95.453125 -165.796875 C 99.085938 -165.796875 101.378906 -165.125 102.328125 -163.78125 C 103.273438 -162.445312 103.75 -160.359375 103.75 -157.515625 L 103.75 -140.6875 C 103.75 -138.957031 103.15625 -137.578125 101.96875 -136.546875 C 100.78125 -135.523438 98.925781 -135.015625 96.40625 -135.015625 L 48.796875 -135.015625 C 45.953125 -135.015625 44.53125 -133.75 44.53125 -131.21875 L 44.53125 -106.34375 C 44.53125 -103.507812 45.398438 -102.09375 47.140625 -102.09375 L 84.5625 -102.09375 C 86.132812 -102.09375 87.429688 -101.695312 88.453125 -100.90625 C 89.484375 -100.113281 90 -99.007812 90 -97.59375 L 90 -76.03125 C 90 -72.875 88.421875 -71.296875 85.265625 -71.296875 L 47.609375 -71.296875 C 45.554688 -71.296875 44.53125 -69.953125 44.53125 -67.265625 L 44.53125 -33.640625 C 44.53125 -31.742188 45.398438 -30.796875 47.140625 -30.796875 L 100.421875 -30.796875 C 103.109375 -30.796875 104.847656 -30.28125 105.640625 -29.25 C 106.429688 -28.226562 106.828125 -26.769531 106.828125 -24.875 L 106.828125 -8.296875 C 106.828125 -5.453125 106.507812 -3.554688 105.875 -2.609375 C 104.613281 -0.867188 102.164062 0 98.53125 0 L 17.765625 0 C 14.921875 0 13.023438 -0.316406 12.078125 -0.953125 C 10.335938 -2.210938 9.46875 -4.660156 9.46875 -8.296875 Z M 9.46875 -8.296875 "/></g></g></g><g fill="#000000" fill-opacity="1"><g transform="translate(206.864482, 348.750002)"><g><path d="M 9.46875 -6.625 L 9.46875 -125.0625 C 9.46875 -127.90625 10.0625 -129.71875 11.25 -130.5 C 12.4375 -131.289062 14.054688 -131.6875 16.109375 -131.6875 L 37.1875 -131.6875 C 38.445312 -131.6875 39.507812 -131.253906 40.375 -130.390625 C 41.25 -129.523438 41.6875 -128.457031 41.6875 -127.1875 C 41.6875 -125.613281 42.238281 -124.828125 43.34375 -124.828125 C 43.5 -124.828125 44.210938 -125.222656 45.484375 -126.015625 C 47.847656 -128.066406 50.210938 -129.644531 52.578125 -130.75 C 56.679688 -132.644531 61.265625 -133.59375 66.328125 -133.59375 C 74.691406 -133.59375 81.554688 -131.066406 86.921875 -126.015625 C 93.398438 -119.847656 96.640625 -110.609375 96.640625 -98.296875 L 96.640625 -6.625 C 96.640625 -3.789062 96.046875 -1.976562 94.859375 -1.1875 C 93.671875 -0.394531 92.050781 0 90 0 L 71.0625 0 C 68.21875 0 66.398438 -0.585938 65.609375 -1.765625 C 64.816406 -2.953125 64.421875 -4.570312 64.421875 -6.625 L 64.421875 -91.421875 C 64.421875 -94.585938 63.429688 -97.234375 61.453125 -99.359375 C 59.484375 -101.492188 56.765625 -102.5625 53.296875 -102.5625 C 48.242188 -102.5625 44.847656 -100.347656 43.109375 -95.921875 C 42.160156 -93.398438 41.6875 -89.769531 41.6875 -85.03125 L 41.6875 -6.625 C 41.6875 -3.789062 41.09375 -1.976562 39.90625 -1.1875 C 38.726562 -0.394531 37.113281 0 35.0625 0 L 16.109375 0 C 13.265625 0 11.445312 -0.585938 10.65625 -1.765625 C 9.863281 -2.953125 9.46875 -4.570312 9.46875 -6.625 Z M 9.46875 -6.625 "/></g></g></g><g fill="#000000" fill-opacity="1"><g transform="translate(312.976442, 348.750002)"><g><path d="M 67.984375 -131.6875 L 89.53125 -131.6875 C 91.582031 -131.6875 93.203125 -131.289062 94.390625 -130.5 C 95.578125 -129.71875 96.171875 -127.90625 96.171875 -125.0625 L 96.171875 -21.796875 C 96.171875 -3.628906 94.273438 8.925781 90.484375 15.875 C 83.378906 28.664062 68.457031 35.0625 45.71875 35.0625 C 30.238281 35.0625 19.972656 34.113281 14.921875 32.21875 C 12.078125 31.113281 10.65625 29.375 10.65625 27 L 10.65625 8.296875 C 10.65625 6.078125 11.601562 4.96875 13.5 4.96875 C 17.757812 5.914062 22.457031 6.785156 27.59375 7.578125 C 32.726562 8.367188 37.347656 8.765625 41.453125 8.765625 C 50.609375 8.765625 56.925781 7.023438 60.40625 3.546875 C 62.769531 1.179688 63.953125 -2.207031 63.953125 -6.625 L 63.953125 -9.234375 C 63.796875 -10.492188 63.554688 -11.125 63.234375 -11.125 C 59.609375 -8.757812 56.097656 -6.945312 52.703125 -5.6875 C 49.304688 -4.425781 45.316406 -3.796875 40.734375 -3.796875 C 27.316406 -3.796875 18.082031 -9.554688 13.03125 -21.078125 C 9.707031 -28.503906 8.046875 -39.082031 8.046875 -52.8125 L 8.046875 -89.296875 C 8.046875 -101.773438 9.46875 -111.171875 12.3125 -117.484375 C 17.050781 -128.222656 25.972656 -133.59375 39.078125 -133.59375 C 44.453125 -133.59375 48.953125 -132.722656 52.578125 -130.984375 C 55.578125 -128.929688 58.578125 -126.878906 61.578125 -124.828125 C 63.003906 -125.140625 63.71875 -125.691406 63.71875 -126.484375 L 63.71875 -128.375 C 63.71875 -130.582031 65.140625 -131.6875 67.984375 -131.6875 Z M 63.953125 -48.3125 L 63.953125 -89.0625 C 63.953125 -93.164062 63.398438 -96.398438 62.296875 -98.765625 C 60.398438 -102.710938 57.082031 -104.6875 52.34375 -104.6875 C 47.601562 -104.6875 44.285156 -102.710938 42.390625 -98.765625 C 41.285156 -96.398438 40.734375 -93.164062 40.734375 -89.0625 L 40.734375 -48.3125 C 40.734375 -44.207031 41.285156 -40.972656 42.390625 -38.609375 C 44.285156 -34.660156 47.601562 -32.6875 52.34375 -32.6875 C 57.082031 -32.6875 60.398438 -34.660156 62.296875 -38.609375 C 63.398438 -40.972656 63.953125 -44.207031 63.953125 -48.3125 Z M 63.953125 -48.3125 "/></g></g></g><g fill="#000000" fill-opacity="1"><g transform="translate(418.614674, 348.750002)"><g><path d="M 41.6875 -159.171875 L 41.6875 -6.625 C 41.6875 -3.789062 41.09375 -1.976562 39.90625 -1.1875 C 38.726562 -0.394531 37.113281 0 35.0625 0 L 16.109375 0 C 13.265625 0 11.445312 -0.585938 10.65625 -1.765625 C 9.863281 -2.953125 9.46875 -4.570312 9.46875 -6.625 L 9.46875 -159.171875 C 9.46875 -162.015625 10.0625 -163.828125 11.25 -164.609375 C 12.4375 -165.398438 14.054688 -165.796875 16.109375 -165.796875 L 35.0625 -165.796875 C 37.894531 -165.796875 39.707031 -165.203125 40.5 -164.015625 C 41.289062 -162.835938 41.6875 -161.222656 41.6875 -159.171875 Z M 41.6875 -159.171875 "/></g></g></g><g fill="#000000" fill-opacity="1"><g transform="translate(469.775781, 348.750002)"><g><path d="M 41.6875 -162.71875 L 41.6875 -148.28125 C 41.6875 -146.21875 41.289062 -144.59375 40.5 -143.40625 C 39.707031 -142.226562 37.894531 -141.640625 35.0625 -141.640625 L 16.109375 -141.640625 C 13.265625 -141.640625 11.445312 -142.226562 10.65625 -143.40625 C 9.863281 -144.59375 9.46875 -146.21875 9.46875 -148.28125 L 9.46875 -162.71875 C 9.46875 -164.769531 9.863281 -166.390625 10.65625 -167.578125 C 11.445312 -168.765625 13.265625 -169.359375 16.109375 -169.359375 L 35.0625 -169.359375 C 37.113281 -169.359375 38.726562 -168.960938 39.90625 -168.171875 C 41.09375 -167.378906 41.6875 -165.5625 41.6875 -162.71875 Z M 41.6875 -125.0625 L 41.6875 -6.625 C 41.6875 -3.789062 41.09375 -1.976562 39.90625 -1.1875 C 38.726562 -0.394531 37.113281 0 35.0625 0 L 16.109375 0 C 13.265625 0 11.445312 -0.585938 10.65625 -1.765625 C 9.863281 -2.953125 9.46875 -4.570312 9.46875 -6.625 L 9.46875 -125.0625 C 9.46875 -127.90625 10.0625 -129.71875 11.25 -130.5 C 12.4375 -131.289062 14.054688 -131.6875 16.109375 -131.6875 L 35.0625 -131.6875 C 37.113281 -131.6875 38.726562 -131.289062 39.90625 -130.5 C 41.09375 -129.71875 41.6875 -127.90625 41.6875 -125.0625 Z M 41.6875 -125.0625 "/></g></g></g><g fill="#000000" fill-opacity="1"><g transform="translate(520.936912, 348.750002)"><g><path d="M 4.734375 -9.71875 L 4.734375 -25.109375 C 4.734375 -28.898438 6 -30.796875 8.53125 -30.796875 C 9.320312 -30.796875 11.492188 -30.28125 15.046875 -29.25 C 18.597656 -28.226562 22.625 -27.320312 27.125 -26.53125 C 31.625 -25.738281 35.375 -25.34375 38.375 -25.34375 C 43.269531 -25.34375 46.820312 -26.367188 49.03125 -28.421875 C 51.238281 -30.472656 52.34375 -33 52.34375 -36 C 52.34375 -40.425781 49.109375 -45.003906 42.640625 -49.734375 C 37.898438 -52.898438 34.582031 -55.191406 32.6875 -56.609375 C 24.476562 -62.453125 18.554688 -67.503906 14.921875 -71.765625 C 8.285156 -79.503906 4.96875 -88.191406 4.96875 -97.828125 C 4.96875 -106.984375 7.578125 -114.640625 12.796875 -120.796875 C 19.898438 -129.328125 31.109375 -133.59375 46.421875 -133.59375 C 58.421875 -133.59375 67.222656 -132.566406 72.828125 -130.515625 C 78.441406 -128.460938 81.25 -125.460938 81.25 -121.515625 L 81.25 -106.59375 C 81.25 -105.800781 81.25 -105.085938 81.25 -104.453125 C 80.769531 -102.554688 79.269531 -101.609375 76.75 -101.609375 C 69.164062 -101.609375 63.796875 -102.632812 60.640625 -104.6875 C 58.898438 -105.789062 55.347656 -106.34375 49.984375 -106.34375 C 46.035156 -106.34375 43.3125 -105.515625 41.8125 -103.859375 C 40.3125 -102.203125 39.5625 -100.425781 39.5625 -98.53125 C 39.5625 -94.425781 43.347656 -89.769531 50.921875 -84.5625 C 54.398438 -82.1875 57.953125 -79.816406 61.578125 -77.453125 C 69.796875 -71.453125 75.71875 -66.003906 79.34375 -61.109375 C 84.394531 -54.160156 86.921875 -45.945312 86.921875 -36.46875 C 86.921875 -24.46875 82.734375 -15.070312 74.359375 -8.28125 C 65.992188 -1.5 54.867188 1.890625 40.984375 1.890625 C 25.660156 1.890625 15.15625 0.3125 9.46875 -2.84375 C 6.3125 -4.582031 4.734375 -6.875 4.734375 -9.71875 Z M 4.734375 -9.71875 "/></g></g></g><g fill="#000000" fill-opacity="1"><g transform="translate(612.126864, 348.750002)"><g><path d="M 9.46875 -6.625 L 9.46875 -159.171875 C 9.46875 -162.015625 10.0625 -163.828125 11.25 -164.609375 C 12.4375 -165.398438 14.054688 -165.796875 16.109375 -165.796875 L 35.0625 -165.796875 C 37.894531 -165.796875 39.707031 -165.203125 40.5 -164.015625 C 41.289062 -162.835938 41.6875 -161.222656 41.6875 -159.171875 L 41.6875 -126.484375 C 41.6875 -125.691406 42.394531 -125.140625 43.8125 -124.828125 C 45.550781 -124.828125 48.195312 -126.285156 51.75 -129.203125 C 55.300781 -132.128906 60.160156 -133.59375 66.328125 -133.59375 C 74.691406 -133.59375 81.554688 -131.066406 86.921875 -126.015625 C 93.398438 -119.847656 96.640625 -110.609375 96.640625 -98.296875 L 96.640625 -6.625 C 96.640625 -3.789062 96.046875 -1.976562 94.859375 -1.1875 C 93.671875 -0.394531 92.050781 0 90 0 L 71.0625 0 C 68.21875 0 66.398438 -0.585938 65.609375 -1.765625 C 64.816406 -2.953125 64.421875 -4.570312 64.421875 -6.625 L 64.421875 -91.421875 C 64.421875 -94.585938 63.429688 -97.234375 61.453125 -99.359375 C 59.484375 -101.492188 56.765625 -102.5625 53.296875 -102.5625 C 48.242188 -102.5625 44.847656 -100.347656 43.109375 -95.921875 C 42.160156 -93.398438 41.6875 -89.769531 41.6875 -85.03125 L 41.6875 -6.625 C 41.6875 -3.789062 41.09375 -1.976562 39.90625 -1.1875 C 38.726562 -0.394531 37.113281 0 35.0625 0 L 16.109375 0 C 13.265625 0 11.445312 -0.585938 10.65625 -1.765625 C 9.863281 -2.953125 9.46875 -4.570312 9.46875 -6.625 Z M 9.46875 -6.625 "/></g></g></g><g fill="#000000" fill-opacity="1"><g transform="translate(235.646479, 608.999989)"><g><path d="M 46.421875 -165.796875 L 76.265625 -165.796875 C 78.316406 -165.796875 79.9375 -165.398438 81.125 -164.609375 C 82.3125 -163.828125 83.296875 -162.015625 84.078125 -159.171875 L 122.453125 -7.109375 C 122.773438 -6.160156 122.9375 -5.132812 122.9375 -4.03125 C 122.9375 -1.34375 121.195312 0 117.71875 0 L 94.5 0 C 92.132812 0 90.4375 -0.628906 89.40625 -1.890625 C 88.382812 -3.160156 87.640625 -4.738281 87.171875 -6.625 L 82.421875 -24.640625 C 81.796875 -27.003906 80.21875 -28.1875 77.6875 -28.1875 L 45.234375 -28.1875 C 42.554688 -28.1875 40.976562 -27.003906 40.5 -24.640625 L 36 -5.921875 C 35.6875 -4.335938 35.015625 -2.953125 33.984375 -1.765625 C 32.960938 -0.585938 31.347656 0 29.140625 0 L 6.15625 0 C 3.15625 0 1.65625 -1.5 1.65625 -4.5 C 1.65625 -4.96875 1.65625 -5.441406 1.65625 -5.921875 C 1.96875 -6.554688 2.125 -6.953125 2.125 -7.109375 L 38.609375 -159.171875 C 39.242188 -162.015625 40.148438 -163.828125 41.328125 -164.609375 C 42.515625 -165.398438 44.210938 -165.796875 46.421875 -165.796875 Z M 51.640625 -59.921875 L 71.296875 -59.921875 C 73.035156 -59.921875 73.585938 -61.109375 72.953125 -63.484375 L 62.53125 -105.40625 C 62.375 -106.03125 62.097656 -106.539062 61.703125 -106.9375 C 61.304688 -107.332031 61.03125 -107.609375 60.875 -107.765625 C 59.925781 -106.816406 59.375 -106.03125 59.21875 -105.40625 L 49.984375 -63.484375 C 49.347656 -61.109375 49.898438 -59.921875 51.640625 -59.921875 Z M 51.640625 -59.921875 "/></g></g></g><g fill="#000000" fill-opacity="1"><g transform="translate(360.233298, 608.999989)"><g><path d="M 41.6875 -3.546875 L 41.6875 27.46875 C 41.6875 30.3125 41.09375 32.128906 39.90625 32.921875 C 38.726562 33.710938 37.113281 34.109375 35.0625 34.109375 L 16.109375 34.109375 C 13.265625 34.109375 11.445312 33.515625 10.65625 32.328125 C 9.863281 31.148438 9.46875 29.53125 9.46875 27.46875 L 9.46875 -125.0625 C 9.46875 -127.90625 10.0625 -129.71875 11.25 -130.5 C 12.4375 -131.289062 14.054688 -131.6875 16.109375 -131.6875 L 37.65625 -131.6875 C 40.5 -131.6875 41.921875 -130.582031 41.921875 -128.375 L 41.921875 -126.484375 C 41.921875 -125.378906 42.472656 -124.828125 43.578125 -124.828125 C 43.734375 -124.828125 44.445312 -125.222656 45.71875 -126.015625 C 48.394531 -128.378906 50.757812 -130.035156 52.8125 -130.984375 C 56.445312 -132.722656 61.03125 -133.59375 66.5625 -133.59375 C 79.820312 -133.59375 88.820312 -128.066406 93.5625 -117.015625 C 96.25 -110.691406 97.59375 -101.453125 97.59375 -89.296875 L 97.59375 -41.453125 C 97.59375 -29.609375 95.929688 -20.367188 92.609375 -13.734375 C 87.398438 -3.316406 78.164062 1.890625 64.90625 1.890625 C 59.53125 1.890625 55.1875 1.179688 51.875 -0.234375 C 48.875 -1.816406 45.875 -3.472656 42.875 -5.203125 C 42.082031 -4.578125 41.6875 -4.023438 41.6875 -3.546875 Z M 41.6875 -89.0625 L 41.6875 -42.640625 C 41.6875 -38.523438 42.238281 -35.285156 43.34375 -32.921875 C 45.238281 -28.972656 48.554688 -27 53.296875 -27 C 58.035156 -27 61.347656 -28.972656 63.234375 -32.921875 C 64.347656 -35.285156 64.90625 -38.523438 64.90625 -42.640625 L 64.90625 -89.0625 C 64.90625 -93.164062 64.347656 -96.398438 63.234375 -98.765625 C 61.347656 -102.710938 58.035156 -104.6875 53.296875 -104.6875 C 48.554688 -104.6875 45.238281 -102.710938 43.34375 -98.765625 C 42.238281 -96.398438 41.6875 -93.164062 41.6875 -89.0625 Z M 41.6875 -89.0625 "/></g></g></g><g fill="#000000" fill-opacity="1"><g transform="translate(467.292692, 608.999989)"><g><path d="M 41.6875 -3.546875 L 41.6875 27.46875 C 41.6875 30.3125 41.09375 32.128906 39.90625 32.921875 C 38.726562 33.710938 37.113281 34.109375 35.0625 34.109375 L 16.109375 34.109375 C 13.265625 34.109375 11.445312 33.515625 10.65625 32.328125 C 9.863281 31.148438 9.46875 29.53125 9.46875 27.46875 L 9.46875 -125.0625 C 9.46875 -127.90625 10.0625 -129.71875 11.25 -130.5 C 12.4375 -131.289062 14.054688 -131.6875 16.109375 -131.6875 L 37.65625 -131.6875 C 40.5 -131.6875 41.921875 -130.582031 41.921875 -128.375 L 41.921875 -126.484375 C 41.921875 -125.378906 42.472656 -124.828125 43.578125 -124.828125 C 43.734375 -124.828125 44.445312 -125.222656 45.71875 -126.015625 C 48.394531 -128.378906 50.757812 -130.035156 52.8125 -130.984375 C 56.445312 -132.722656 61.03125 -133.59375 66.5625 -133.59375 C 79.820312 -133.59375 88.820312 -128.066406 93.5625 -117.015625 C 96.25 -110.691406 97.59375 -101.453125 97.59375 -89.296875 L 97.59375 -41.453125 C 97.59375 -29.609375 95.929688 -20.367188 92.609375 -13.734375 C 87.398438 -3.316406 78.164062 1.890625 64.90625 1.890625 C 59.53125 1.890625 55.1875 1.179688 51.875 -0.234375 C 48.875 -1.816406 45.875 -3.472656 42.875 -5.203125 C 42.082031 -4.578125 41.6875 -4.023438 41.6875 -3.546875 Z M 41.6875 -89.0625 L 41.6875 -42.640625 C 41.6875 -38.523438 42.238281 -35.285156 43.34375 -32.921875 C 45.238281 -28.972656 48.554688 -27 53.296875 -27 C 58.035156 -27 61.347656 -28.972656 63.234375 -32.921875 C 64.347656 -35.285156 64.90625 -38.523438 64.90625 -42.640625 L 64.90625 -89.0625 C 64.90625 -93.164062 64.347656 -96.398438 63.234375 -98.765625 C 61.347656 -102.710938 58.035156 -104.6875 53.296875 -104.6875 C 48.554688 -104.6875 45.238281 -102.710938 43.34375 -98.765625 C 42.238281 -96.398438 41.6875 -93.164062 41.6875 -89.0625 Z M 41.6875 -89.0625 "/></g></g></g></svg>